<svg width="306" height="157" viewBox="0 0 306 157" fill="none" xmlns="http://www.w3.org/2000/svg">
<g opacity="0.75" clip-path="url(#clip0_28_258)">
<path d="M167.225 98.8551V131.864C167.225 132.771 167.326 133.678 167.525 134.56C168.127 137.232 169.64 139.661 171.785 141.395C172.856 142.262 174.053 142.937 175.343 143.403C176.679 143.885 178.082 144.13 179.511 144.13H191.894V145.327C191.894 146.942 190.578 148.255 188.962 148.255H116.102C114.485 148.255 113.17 146.942 113.17 145.327V46.7569C113.17 45.1421 114.485 43.8294 116.102 43.8294H168.485V55.0016C168.485 61.727 173.966 67.1986 180.703 67.1986H191.894V86.5897H179.511C177.428 86.5897 175.367 87.1228 173.552 88.1314C171.797 89.1067 170.292 90.5116 169.197 92.1954C168.376 93.46 167.802 94.8466 167.491 96.3157C167.315 97.1482 167.225 98.0023 167.225 98.8551Z" fill="white"/>
<path d="M180.537 82.8054C180.537 81.9011 179.803 81.1682 178.897 81.1682H126.167C125.261 81.1682 124.527 81.9011 124.527 82.8054C124.527 83.7096 125.261 84.4425 126.167 84.4425H178.897C179.803 84.4425 180.537 83.7096 180.537 82.8054Z" fill="#FECC09"/>
<path d="M126.167 72.0511H155.156C156.062 72.0511 156.796 71.3182 156.796 70.414C156.796 69.5097 156.062 68.7768 155.156 68.7768H126.167C125.261 68.7768 124.527 69.5097 124.527 70.414C124.527 71.3182 125.261 72.0511 126.167 72.0511Z" fill="#240D42"/>
<path d="M126.167 59.659H155.156C156.062 59.659 156.796 58.9261 156.796 58.0219C156.796 57.1176 156.062 56.3847 155.156 56.3847H126.167C125.261 56.3847 124.527 57.1176 124.527 58.0219C124.527 58.9261 125.261 59.659 126.167 59.659Z" fill="#FECC09"/>
<path d="M198.94 61.8577V89.0959H193.149V65.9455H180.703C174.658 65.9455 169.74 61.0361 169.74 55.0016V42.5763H116.102C113.793 42.5763 111.915 44.4512 111.915 46.7569V145.327C111.915 147.633 113.793 149.508 116.102 149.508H188.961C191.27 149.508 193.149 147.633 193.149 145.327V141.623H198.94V145.327C198.94 150.821 194.463 155.289 188.961 155.289H116.102C110.6 155.289 106.124 150.821 106.124 145.327V46.7569C106.124 41.2636 110.6 36.7952 116.102 36.7952H173.835L198.94 61.8577Z" fill="#240D42"/>
<path d="M126.167 134.009H169.358C169.244 133.311 169.184 132.594 169.184 131.865V130.735H126.167C125.261 130.735 124.527 131.468 124.527 132.372C124.527 133.277 125.261 134.009 126.167 134.009Z" fill="#FECC09"/>
<path d="M126.167 121.617H169.184V118.342H126.167C125.261 118.342 124.527 119.075 124.527 119.98C124.527 120.884 125.261 121.617 126.167 121.617V121.617Z" fill="#240D42"/>
<path d="M126.167 109.226H169.184V105.951H126.167C125.261 105.951 124.527 106.684 124.527 107.588C124.527 108.492 125.261 109.225 126.167 109.225V109.226Z" fill="#FECC09"/>
<path d="M126.167 93.5596C125.261 93.5596 124.527 94.2925 124.527 95.1968C124.527 96.101 125.261 96.8339 126.167 96.8339H169.338C169.514 95.6878 169.837 94.5899 170.288 93.5589H126.167V93.5596Z" fill="#240D42"/>
<path d="M223.487 97.2207C222.879 93.158 220.04 89.8132 216.258 88.4734C215.106 88.065 213.867 87.8428 212.577 87.8428H179.511C175.761 87.8428 172.299 89.7251 170.25 92.8775C170.105 93.101 169.969 93.328 169.842 93.5596C169.32 94.5045 168.943 95.5158 168.719 96.5752C168.701 96.6612 168.684 96.7472 168.667 96.8339C168.543 97.4991 168.48 98.1778 168.48 98.8551V131.864C168.48 132.584 168.551 133.305 168.691 134.009C168.71 134.102 168.729 134.193 168.75 134.284C168.845 134.709 168.966 135.126 169.113 135.535C169.789 137.435 170.99 139.139 172.576 140.422C174.102 141.657 175.938 142.46 177.867 142.753C178.409 142.835 178.959 142.877 179.511 142.877H212.577C218.66 142.877 223.608 137.937 223.608 131.864V98.8551C223.608 98.2997 223.567 97.7538 223.487 97.2207ZM222.353 131.864C222.353 131.956 222.351 132.048 222.349 132.139C222.347 132.211 222.344 132.284 222.341 132.357C222.337 132.439 222.331 132.52 222.325 132.601C222.323 132.635 222.32 132.67 222.317 132.705C222.299 132.913 222.275 133.119 222.244 133.323C222.239 133.354 222.234 133.385 222.229 133.416C222.227 133.434 222.224 133.452 222.22 133.469C222.209 133.537 222.197 133.605 222.185 133.673C222.17 133.753 222.153 133.833 222.136 133.911C222.13 133.944 222.122 133.978 222.115 134.01C222.096 134.093 222.076 134.177 222.055 134.259C222.045 134.297 222.035 134.335 222.025 134.373C222.005 134.45 221.984 134.526 221.961 134.601C221.95 134.639 221.94 134.676 221.927 134.714C221.917 134.751 221.904 134.789 221.892 134.826C221.881 134.864 221.868 134.902 221.855 134.938C221.844 134.975 221.831 135.012 221.818 135.049C221.805 135.086 221.792 135.124 221.779 135.16C221.752 135.233 221.725 135.307 221.697 135.38C221.669 135.452 221.64 135.525 221.609 135.596C221.58 135.668 221.549 135.74 221.517 135.811C221.486 135.882 221.453 135.952 221.42 136.023C221.387 136.093 221.353 136.163 221.317 136.232C221.283 136.301 221.248 136.369 221.211 136.438C221.18 136.497 221.147 136.557 221.114 136.615C221.108 136.625 221.103 136.636 221.097 136.645C221.064 136.704 221.03 136.762 220.996 136.82C220.991 136.829 220.985 136.839 220.979 136.848C220.945 136.906 220.91 136.963 220.874 137.021C220.869 137.029 220.864 137.037 220.859 137.043C220.822 137.102 220.785 137.161 220.746 137.219C220.743 137.223 220.74 137.228 220.737 137.233C220.697 137.294 220.656 137.354 220.614 137.414C220.608 137.423 220.602 137.433 220.595 137.442C220.556 137.496 220.517 137.551 220.478 137.605C220.475 137.61 220.472 137.614 220.469 137.617C220.426 137.677 220.382 137.735 220.337 137.793C220.337 137.794 220.336 137.795 220.334 137.797C220.287 137.857 220.24 137.918 220.192 137.977H220.191C220.143 138.038 220.094 138.097 220.045 138.156C220.044 138.156 220.043 138.158 220.042 138.158C219.995 138.214 219.947 138.269 219.899 138.324C219.844 138.386 219.787 138.448 219.73 138.509C219.681 138.562 219.631 138.615 219.58 138.667C219.576 138.671 219.572 138.674 219.569 138.678C219.517 138.731 219.464 138.784 219.411 138.836C219.409 138.838 219.405 138.841 219.403 138.844C219.348 138.897 219.293 138.949 219.238 139C219.236 139.002 219.234 139.004 219.233 139.006C219.177 139.058 219.12 139.11 219.062 139.161L219.059 139.163C219 139.216 218.941 139.266 218.882 139.317C218.822 139.367 218.761 139.417 218.7 139.466C218.699 139.467 218.698 139.468 218.697 139.469C218.639 139.515 218.581 139.561 218.523 139.606C218.512 139.614 218.502 139.622 218.491 139.629C218.437 139.671 218.383 139.711 218.327 139.752C218.321 139.757 218.315 139.761 218.308 139.766C218.246 139.811 218.184 139.855 218.122 139.898C218.069 139.934 218.015 139.97 217.962 140.005C217.955 140.011 217.948 140.015 217.94 140.02C217.922 140.032 217.904 140.044 217.886 140.055C217.838 140.087 217.791 140.117 217.742 140.147C217.729 140.156 217.715 140.165 217.7 140.173C217.649 140.204 217.598 140.236 217.546 140.266C217.525 140.278 217.505 140.291 217.484 140.303C217.435 140.331 217.385 140.359 217.336 140.387C217.316 140.399 217.295 140.41 217.274 140.421C217.217 140.453 217.159 140.484 217.1 140.514C217.075 140.528 217.05 140.541 217.023 140.554C216.976 140.578 216.929 140.602 216.881 140.626C216.88 140.626 216.878 140.627 216.877 140.628C216.82 140.656 216.762 140.683 216.704 140.71C216.702 140.712 216.699 140.712 216.697 140.714C216.668 140.727 216.639 140.74 216.611 140.753C216.531 140.79 216.451 140.825 216.37 140.859C216.336 140.873 216.303 140.887 216.269 140.901C216.237 140.914 216.206 140.927 216.174 140.939C216.151 140.948 216.128 140.958 216.104 140.966C216.071 140.979 216.039 140.992 216.006 141.004C215.945 141.027 215.884 141.049 215.822 141.071C215.788 141.083 215.754 141.095 215.719 141.107C215.678 141.12 215.637 141.134 215.595 141.147C215.557 141.16 215.519 141.172 215.481 141.184C215.443 141.196 215.404 141.208 215.366 141.219C215.289 141.242 215.212 141.264 215.133 141.285C215.091 141.297 215.047 141.308 215.003 141.319C214.969 141.328 214.934 141.337 214.899 141.345C214.861 141.355 214.821 141.364 214.782 141.373C214.428 141.455 214.066 141.518 213.698 141.56C213.657 141.565 213.616 141.569 213.575 141.573C213.449 141.586 213.323 141.596 213.196 141.605C213.118 141.609 213.04 141.613 212.961 141.616C212.833 141.621 212.706 141.624 212.577 141.624H179.511C179.37 141.624 179.23 141.621 179.091 141.615C179 141.611 178.91 141.606 178.821 141.599C178.763 141.595 178.705 141.591 178.648 141.586C178.577 141.579 178.506 141.573 178.435 141.565C178.377 141.558 178.318 141.552 178.259 141.544C178.224 141.54 178.189 141.535 178.154 141.529C178.107 141.523 178.061 141.516 178.015 141.509C177.956 141.5 177.898 141.491 177.841 141.481C177.799 141.474 177.756 141.466 177.714 141.458C177.685 141.453 177.655 141.447 177.626 141.441C177.565 141.429 177.504 141.417 177.443 141.403C177.397 141.394 177.352 141.384 177.308 141.373C177.274 141.365 177.24 141.357 177.206 141.349C177.196 141.347 177.185 141.344 177.175 141.342C177.115 141.327 177.054 141.312 176.994 141.296C176.986 141.294 176.978 141.291 176.969 141.288C176.919 141.275 176.87 141.262 176.82 141.248C176.797 141.241 176.774 141.234 176.752 141.227C176.698 141.212 176.646 141.196 176.593 141.179C176.59 141.179 176.586 141.177 176.582 141.176C176.53 141.16 176.478 141.143 176.427 141.126C176.399 141.117 176.371 141.107 176.344 141.097C176.309 141.086 176.273 141.074 176.238 141.06C176.211 141.051 176.184 141.042 176.157 141.032C176.126 141.02 176.094 141.008 176.063 140.996C176.022 140.981 175.981 140.965 175.94 140.949C175.925 140.943 175.908 140.937 175.893 140.93C175.843 140.911 175.794 140.891 175.746 140.87C175.736 140.866 175.727 140.862 175.717 140.858C175.671 140.839 175.625 140.819 175.579 140.799C175.523 140.774 175.466 140.748 175.41 140.722C175.377 140.707 175.345 140.692 175.313 140.677C175.279 140.661 175.246 140.645 175.212 140.628C175.191 140.618 175.17 140.607 175.149 140.596C175.11 140.577 175.071 140.557 175.033 140.538C175.011 140.527 174.99 140.515 174.969 140.504C174.933 140.486 174.897 140.467 174.862 140.446C174.81 140.419 174.759 140.391 174.708 140.362C174.665 140.337 174.622 140.313 174.579 140.287C174.547 140.27 174.515 140.251 174.484 140.231C174.433 140.2 174.382 140.17 174.332 140.138C174.283 140.108 174.235 140.076 174.186 140.045C174.144 140.018 174.103 139.99 174.062 139.962C173.987 139.913 173.914 139.861 173.84 139.809C173.787 139.771 173.734 139.732 173.682 139.693C173.629 139.654 173.576 139.615 173.525 139.575C173.297 139.398 173.076 139.21 172.865 139.014C172.823 138.975 172.781 138.935 172.739 138.896L172.721 138.878C172.675 138.834 172.631 138.79 172.586 138.745C172.526 138.685 172.466 138.624 172.407 138.561C172.373 138.525 172.34 138.489 172.307 138.454C172.295 138.44 172.282 138.426 172.27 138.412C172.233 138.372 172.197 138.332 172.162 138.292C172.159 138.289 172.156 138.286 172.154 138.281C172.11 138.233 172.068 138.184 172.027 138.135C172.022 138.129 172.017 138.123 172.012 138.117C171.972 138.069 171.932 138.021 171.894 137.973C171.89 137.969 171.886 137.964 171.882 137.958C171.848 137.916 171.814 137.874 171.781 137.83C171.761 137.805 171.742 137.78 171.723 137.755C171.7 137.725 171.678 137.696 171.657 137.667C171.642 137.647 171.628 137.628 171.614 137.608C171.579 137.561 171.546 137.515 171.513 137.468C171.472 137.411 171.433 137.354 171.394 137.296C171.358 137.242 171.322 137.188 171.286 137.133C171.281 137.124 171.275 137.115 171.27 137.106C171.237 137.056 171.205 137.005 171.175 136.955C171.17 136.948 171.166 136.942 171.162 136.935C171.131 136.885 171.101 136.835 171.073 136.785C171.063 136.77 171.055 136.755 171.047 136.741C171.025 136.704 171.004 136.667 170.983 136.629C170.964 136.596 170.946 136.564 170.929 136.532C170.919 136.514 170.909 136.496 170.9 136.478C170.877 136.437 170.855 136.396 170.834 136.354C170.82 136.327 170.806 136.3 170.792 136.273C170.776 136.241 170.759 136.209 170.744 136.177C170.727 136.142 170.71 136.108 170.693 136.073C170.681 136.048 170.668 136.022 170.657 135.996C170.641 135.964 170.626 135.93 170.611 135.897C170.593 135.859 170.576 135.821 170.559 135.783C170.555 135.773 170.55 135.762 170.546 135.752C170.524 135.703 170.503 135.653 170.482 135.603C170.472 135.578 170.462 135.554 170.453 135.529C170.435 135.488 170.418 135.446 170.402 135.404C170.398 135.394 170.394 135.384 170.39 135.374C170.368 135.317 170.346 135.26 170.326 135.203C170.306 135.149 170.286 135.094 170.267 135.039C170.246 134.978 170.225 134.916 170.206 134.855C170.201 134.841 170.197 134.826 170.192 134.812C170.152 134.687 170.115 134.562 170.081 134.436C170.042 134.295 170.007 134.152 169.974 134.009C169.818 133.319 169.735 132.601 169.735 131.864V98.8551C169.735 98.1622 169.809 97.4862 169.947 96.8339C170.197 95.6499 170.664 94.5438 171.304 93.5596C173.047 90.8753 176.075 89.0959 179.511 89.0959H212.577C212.706 89.0959 212.833 89.0986 212.961 89.1033C213.04 89.1061 213.118 89.1101 213.196 89.1149C213.323 89.123 213.449 89.1338 213.575 89.1467C213.599 89.1487 213.623 89.1514 213.647 89.1541C213.671 89.1569 213.694 89.1589 213.717 89.1623C213.886 89.1812 214.053 89.2056 214.219 89.2341C214.34 89.2544 214.46 89.2767 214.578 89.3018C214.617 89.3099 214.656 89.3181 214.694 89.3262C214.777 89.3445 214.859 89.3641 214.939 89.3844C214.979 89.3939 215.02 89.4041 215.059 89.4149C215.266 89.4691 215.471 89.5301 215.673 89.5978C215.702 89.6073 215.732 89.6175 215.761 89.6276C215.843 89.6554 215.925 89.6852 216.006 89.7157C216.039 89.7279 216.071 89.7401 216.104 89.7529C216.141 89.7671 216.179 89.782 216.216 89.7976C216.235 89.8051 216.255 89.8125 216.274 89.8207C216.306 89.8335 216.338 89.8471 216.37 89.8606C216.451 89.8945 216.531 89.9297 216.611 89.9663C216.639 89.9792 216.668 89.992 216.697 90.0056C216.699 90.0069 216.702 90.0076 216.704 90.009C216.762 90.0361 216.82 90.0632 216.877 90.0916C216.878 90.0923 216.88 90.093 216.881 90.0936C216.929 90.1173 216.976 90.141 217.023 90.1654C217.05 90.1783 217.075 90.1918 217.1 90.2054C217.159 90.2359 217.217 90.2664 217.274 90.2982C217.295 90.309 217.316 90.3205 217.336 90.3327C217.385 90.3605 217.435 90.3883 217.484 90.4174C217.505 90.4289 217.525 90.4411 217.546 90.4533C217.598 90.4838 217.649 90.5149 217.7 90.5468C217.715 90.5549 217.729 90.5637 217.742 90.5725C217.791 90.6023 217.838 90.6328 217.886 90.664C217.904 90.6755 217.922 90.6877 217.94 90.6999C217.952 90.7073 217.964 90.7148 217.974 90.7222C218.013 90.7479 218.052 90.7737 218.09 90.7994C218.107 90.8109 218.124 90.8231 218.141 90.8346C218.196 90.8726 218.251 90.9119 218.304 90.9512C218.312 90.9559 218.32 90.962 218.327 90.9674C218.383 91.008 218.437 91.0487 218.491 91.09C218.504 91.0988 218.516 91.1076 218.527 91.1171C218.571 91.1503 218.614 91.1842 218.656 91.218C218.671 91.2295 218.686 91.2417 218.7 91.2532C218.715 91.2648 218.729 91.2763 218.743 91.2878C218.79 91.3257 218.836 91.3637 218.882 91.4023C218.933 91.4456 218.984 91.4896 219.034 91.5337C219.109 91.5994 219.182 91.6658 219.255 91.7342C219.304 91.7809 219.354 91.8276 219.403 91.8751C219.405 91.8784 219.409 91.8811 219.411 91.8839C219.464 91.9353 219.517 91.9882 219.569 92.041C219.572 92.0451 219.576 92.0485 219.58 92.0525C219.612 92.085 219.644 92.1182 219.675 92.1514C219.802 92.2842 219.924 92.421 220.042 92.5612C220.101 92.6303 220.159 92.7001 220.215 92.7705C220.244 92.8064 220.272 92.8416 220.3 92.8782C220.34 92.9297 220.38 92.9812 220.418 93.034C220.458 93.0862 220.496 93.139 220.534 93.1925C220.576 93.2501 220.617 93.3083 220.657 93.3673C220.687 93.4113 220.717 93.4553 220.746 93.5C220.75 93.5054 220.754 93.5115 220.757 93.5169C220.794 93.5718 220.829 93.6267 220.863 93.6822C220.899 93.7378 220.933 93.794 220.967 93.8502C220.997 93.9003 221.026 93.9498 221.055 94.0006C221.06 94.008 221.064 94.0155 221.068 94.0229C221.101 94.0785 221.132 94.1354 221.163 94.1916C221.194 94.2478 221.224 94.304 221.253 94.3602C221.289 94.428 221.324 94.4964 221.357 94.5648C221.382 94.6156 221.407 94.6671 221.431 94.7192C221.433 94.724 221.436 94.7294 221.438 94.7341C221.464 94.7897 221.49 94.8452 221.514 94.9014C221.57 95.0261 221.623 95.1521 221.674 95.2794C221.695 95.3336 221.716 95.3885 221.737 95.4433C221.762 95.5097 221.786 95.5761 221.809 95.6431C221.827 95.6946 221.845 95.7461 221.862 95.7983C221.904 95.9263 221.944 96.0556 221.981 96.1857C221.989 96.2121 221.996 96.2385 222.003 96.2649C222.018 96.3157 222.031 96.3672 222.045 96.418C222.059 96.4742 222.073 96.5305 222.086 96.5874C222.092 96.609 222.097 96.6314 222.102 96.6531C222.114 96.7032 222.125 96.7533 222.136 96.8041C222.15 96.8698 222.163 96.9362 222.176 97.0033C222.176 97.0053 222.176 97.0073 222.178 97.0093C222.189 97.069 222.2 97.1292 222.21 97.1895C222.225 97.2694 222.237 97.3494 222.249 97.4293C222.258 97.4889 222.266 97.5492 222.273 97.6088C222.273 97.6102 222.273 97.6115 222.273 97.6129C222.28 97.665 222.286 97.7172 222.292 97.7693C222.295 97.7985 222.299 97.8283 222.301 97.8581C222.319 98.0281 222.332 98.2001 222.34 98.3728C222.342 98.4074 222.343 98.4426 222.345 98.4778C222.347 98.5192 222.348 98.5612 222.349 98.6031C222.349 98.6296 222.35 98.6567 222.351 98.6838C222.351 98.7406 222.352 98.7975 222.352 98.8544V131.864L222.353 131.864Z" fill="white"/>
<path d="M222.353 98.8551V131.864C222.353 137.246 217.968 141.624 212.577 141.624H179.511C174.859 141.624 170.956 138.362 169.974 134.009C169.818 133.319 169.735 132.601 169.735 131.864V98.8551C169.735 98.1622 169.809 97.4862 169.947 96.8339C170.197 95.6499 170.664 94.5438 171.304 93.5596C173.047 90.8753 176.075 89.0959 179.511 89.0959H212.577C217.968 89.0959 222.353 93.4736 222.353 98.8551Z" fill="#FECC09"/>
<g style="mix-blend-mode:multiply">
<path d="M206.449 117.089L215.726 107.828L217.501 106.055L215.769 104.326L208.895 97.4632L208.007 98.3491L207.12 99.2358L197.842 108.497L196.997 107.654L196.11 106.767L186.79 97.4632L185.902 98.3491L185.015 99.2358L179.958 104.283L178.183 106.055L178.225 106.099L187.503 115.36L188.39 116.246L189.235 117.089L179.07 127.237L178.183 128.123L183.282 133.214L185.057 134.986L186.79 136.715L197.842 125.681L205.386 133.214L207.162 134.986L208.894 136.715L210.669 134.943L215.726 129.895L217.501 128.123L206.449 117.089H206.449ZM213.951 128.123L208.895 133.171L207.162 131.442L199.483 123.775L197.842 122.137L196.954 123.023L196.202 123.774L186.79 133.171L185.945 132.328L185.057 131.442L181.733 128.123L192.786 117.089L191.053 115.36L181.733 106.055L186.79 101.008L197.842 112.041L199.483 110.403L208.895 101.008L212.219 104.326L213.107 105.213L213.951 106.055L203.786 116.203L202.899 117.089L212.219 126.393L213.107 127.28L213.951 128.123Z" fill="#DDDDDD"/>
</g>
<path d="M196.11 122.18L185.057 133.214L178.226 126.393L189.278 115.36L178.226 104.326L185.057 97.5058L196.11 108.54L207.162 97.5058L213.994 104.326L202.941 115.36L213.994 126.393L207.162 133.214L196.11 122.18Z" fill="white"/>
</g>
<path d="M23.9343 116.104L18.5963 115.511C18.0838 115.458 17.6711 115.039 17.6246 114.52L17.0122 107.711C16.9989 107.524 16.8392 107.385 16.6528 107.385C16.4664 107.385 16.3067 107.524 16.2934 107.711L15.6811 114.526C15.6345 115.039 15.2285 115.458 14.7093 115.511L9.37137 116.104C9.19166 116.124 9.05189 116.277 9.05189 116.463C9.05189 116.65 9.19166 116.803 9.37137 116.823L14.7093 117.415C15.2218 117.468 15.6345 117.888 15.6811 118.4L16.2934 125.209C16.3067 125.395 16.4664 125.535 16.6528 125.535C16.8392 125.535 16.9989 125.395 17.0122 125.209L17.6246 118.393C17.6711 117.881 18.0772 117.462 18.5963 117.408L23.9343 116.816C24.114 116.796 24.2537 116.643 24.2537 116.457C24.2537 116.27 24.114 116.117 23.9343 116.097V116.104ZM18.5164 116.696C17.6645 116.789 16.9856 117.482 16.9057 118.34L16.6528 121.162L16.3999 118.34C16.32 117.482 15.6478 116.789 14.7892 116.696L12.6993 116.463L14.7892 116.23C15.6411 116.137 16.32 115.445 16.3999 114.586L16.6528 111.764L16.9057 114.586C16.9856 115.445 17.6578 116.137 18.5164 116.23L20.6064 116.463L18.5164 116.696ZM258.864 30.4237L252.355 29.7048C251.662 29.6316 251.11 29.0659 251.05 28.3737L250.305 20.0672C250.291 19.9142 250.158 19.7943 250.005 19.7943C249.852 19.7943 249.719 19.9142 249.706 20.0672L248.96 28.3737C248.9 29.0659 248.348 29.625 247.656 29.7048L241.146 30.4237C240.993 30.4436 240.88 30.5701 240.88 30.7232C240.88 30.8763 240.993 31.0027 241.146 31.0227L247.656 31.7415C248.348 31.8214 248.9 32.3805 248.96 33.0727L249.706 41.3791C249.719 41.5322 249.852 41.652 250.005 41.652C250.158 41.652 250.291 41.5322 250.305 41.3791L251.05 33.0727C251.11 32.3805 251.662 31.8214 252.355 31.7415L258.864 31.0227C259.017 31.0027 259.13 30.8763 259.13 30.7232C259.13 30.5701 259.017 30.4436 258.864 30.4237ZM252.288 31.1425C251.31 31.249 250.538 32.041 250.451 33.0128L250.005 38.0046L249.553 33.0128C249.466 32.0344 248.694 31.249 247.716 31.1425L243.902 30.7232L247.716 30.3039C248.694 30.1974 249.466 29.4053 249.553 28.4269L250.005 23.4351L250.451 28.4269C250.538 29.4053 251.31 30.1907 252.288 30.3039L256.102 30.7232L252.288 31.1425ZM12.3332 52.0018L15.7343 52.3811C16.0604 52.4144 16.32 52.6807 16.3533 53.0134L16.746 57.3597C16.7593 57.4795 16.8591 57.5727 16.9723 57.5727C17.0854 57.5727 17.1919 57.4795 17.1986 57.3597L17.5913 53.0134C17.6179 52.6873 17.8775 52.4211 18.2103 52.3811L21.618 52.0018C21.7378 51.9884 21.8244 51.8886 21.8244 51.7755C21.8244 51.6623 21.7378 51.5625 21.618 51.5492L18.2103 51.1698C17.8841 51.1365 17.6246 50.8703 17.5913 50.5375L17.1986 46.1912C17.1853 46.0714 17.0854 45.9783 16.9723 45.9783C16.8591 45.9783 16.7526 46.0714 16.746 46.1912L16.3533 50.5375C16.32 50.8636 16.0671 51.1298 15.7343 51.1698L12.3332 51.5492C12.2134 51.5625 12.1269 51.6623 12.1269 51.7755C12.1269 51.8886 12.2134 51.9884 12.3332 52.0018ZM15.7876 51.6224C16.3333 51.5625 16.766 51.1232 16.8125 50.5774L16.9723 48.7804L17.132 50.5774C17.1786 51.1232 17.6112 51.5625 18.157 51.6224L19.4882 51.7688L18.157 51.9152C17.6112 51.9751 17.1786 52.4144 17.132 52.9602L16.9723 54.7573L16.8125 52.9602C16.766 52.4144 16.3333 51.9751 15.7876 51.9152L14.4564 51.7688L15.7876 51.6224ZM99.837 8.35968L103.238 8.73906C103.564 8.77234 103.824 9.03858 103.857 9.37137L104.25 13.7176C104.263 13.8374 104.363 13.9306 104.476 13.9306C104.589 13.9306 104.696 13.8374 104.702 13.7176L105.095 9.37137C105.122 9.04523 105.381 8.779 105.714 8.73906L109.122 8.35968C109.242 8.34637 109.328 8.24654 109.328 8.13339C109.328 8.02024 109.242 7.9204 109.122 7.90709L105.714 7.52771C105.388 7.49443 105.128 7.2282 105.095 6.89541L104.702 2.54917C104.689 2.42937 104.589 2.33618 104.476 2.33618C104.363 2.33618 104.256 2.42937 104.25 2.54917L103.857 6.89541C103.824 7.22154 103.571 7.48777 103.238 7.52771L99.837 7.90709C99.7172 7.9204 99.6307 8.02024 99.6307 8.13339C99.6307 8.24654 99.7172 8.34637 99.837 8.35968ZM103.291 7.9803C103.837 7.9204 104.27 7.48112 104.316 6.93534L104.476 5.13828L104.636 6.93534C104.682 7.48112 105.115 7.9204 105.661 7.9803L106.992 8.12673L105.661 8.27316C105.115 8.33306 104.682 8.77234 104.636 9.31812L104.476 11.1152L104.316 9.31812C104.27 8.77234 103.837 8.33306 103.291 8.27316L101.96 8.12673L103.291 7.9803ZM30.2905 62.3648L33.6917 62.7442C34.0178 62.7775 34.2774 63.0437 34.3106 63.3765L34.7033 67.7228C34.7166 67.8426 34.8165 67.9357 34.9296 67.9357C35.0428 67.9357 35.1493 67.8426 35.1559 67.7228L35.5486 63.3765C35.5752 63.0504 35.8348 62.7842 36.1676 62.7442L39.5754 62.3648C39.6952 62.3515 39.7817 62.2517 39.7817 62.1385C39.7817 62.0254 39.6952 61.9256 39.5754 61.9122L36.1676 61.5329C35.8415 61.4996 35.5819 61.2334 35.5486 60.9006L35.1559 56.5543C35.1426 56.4345 35.0428 56.3413 34.9296 56.3413C34.8165 56.3413 34.71 56.4345 34.7033 56.5543L34.3106 60.9006C34.2774 61.2267 34.0244 61.4929 33.6917 61.5329L30.2905 61.9122C30.1707 61.9256 30.0842 62.0254 30.0842 62.1385C30.0842 62.2517 30.1707 62.3515 30.2905 62.3648ZM33.7449 61.9855C34.2907 61.9256 34.7233 61.4863 34.7699 60.9405L34.9296 59.1434L35.0894 60.9405C35.136 61.4863 35.5686 61.9256 36.1144 61.9855L37.4455 62.1319L36.1144 62.2783C35.5686 62.3382 35.136 62.7775 35.0894 63.3233L34.9296 65.1203L34.7699 63.3233C34.7233 62.7775 34.2907 62.3382 33.7449 62.2783L32.4137 62.1319L33.7449 61.9855ZM277.647 60.235L281.048 60.6144C281.374 60.6476 281.633 60.9139 281.667 61.2467L282.059 65.5929C282.073 65.7127 282.173 65.8059 282.286 65.8059C282.399 65.8059 282.505 65.7127 282.512 65.5929L282.905 61.2467C282.931 60.9205 283.191 60.6543 283.524 60.6144L286.932 60.235C287.051 60.2217 287.138 60.1218 287.138 60.0087C287.138 59.8955 287.051 59.7957 286.932 59.7824L283.524 59.403C283.198 59.3697 282.938 59.1035 282.905 58.7707L282.512 54.4245C282.499 54.3047 282.399 54.2115 282.286 54.2115C282.173 54.2115 282.066 54.3047 282.059 54.4245L281.667 58.7707C281.633 59.0968 281.381 59.3631 281.048 59.403L277.647 59.7824C277.527 59.7957 277.44 59.8955 277.44 60.0087C277.44 60.1218 277.527 60.2217 277.647 60.235ZM281.101 59.8556C281.647 59.7957 282.079 59.3564 282.126 58.8106L282.286 57.0136L282.445 58.8106C282.492 59.3564 282.925 59.7957 283.47 59.8556L284.802 60.002L283.47 60.1485C282.925 60.2084 282.492 60.6476 282.445 61.1934L282.286 62.9905L282.126 61.1934C282.079 60.6476 281.647 60.2084 281.101 60.1485L279.77 60.002L281.101 59.8556ZM231.748 14.1436L234.431 14.4431C234.69 14.4697 234.896 14.6827 234.916 14.9423L235.223 18.3633C235.229 18.4565 235.309 18.5297 235.402 18.5297C235.495 18.5297 235.575 18.4565 235.582 18.3633L235.888 14.9423C235.908 14.6827 236.114 14.4764 236.374 14.4431L239.056 14.1436C239.15 14.1303 239.216 14.057 239.216 13.9639C239.216 13.8707 239.15 13.7908 239.056 13.7842L236.374 13.4847C236.114 13.458 235.908 13.245 235.888 12.9855L235.582 9.56438C235.575 9.4712 235.495 9.39799 235.402 9.39799C235.309 9.39799 235.229 9.4712 235.223 9.56438L234.916 12.9855C234.896 13.245 234.69 13.4514 234.431 13.4847L231.748 13.7842C231.655 13.7975 231.589 13.8707 231.589 13.9639C231.589 14.057 231.655 14.1369 231.748 14.1436ZM234.47 13.8441C234.896 13.7975 235.243 13.4514 235.276 13.0187L235.402 11.6011L235.529 13.0187C235.569 13.4514 235.908 13.7975 236.334 13.8441L237.386 13.9572L236.334 14.077C235.901 14.1236 235.562 14.4697 235.529 14.9023L235.402 16.32L235.276 14.9023C235.236 14.4697 234.896 14.1236 234.47 14.077L233.419 13.9572L234.47 13.8441ZM271.69 5.5709L274.838 5.91701C275.144 5.95028 275.384 6.19655 275.41 6.50272L275.77 10.5228C275.776 10.636 275.87 10.7158 275.983 10.7158C276.096 10.7158 276.182 10.6293 276.196 10.5228L276.555 6.50272C276.582 6.19655 276.821 5.95694 277.128 5.91701L280.276 5.5709C280.382 5.55759 280.469 5.46441 280.469 5.35792C280.469 5.25143 280.389 5.15824 280.276 5.14493L277.128 4.79883C276.821 4.76555 276.582 4.51929 276.555 4.21312L276.196 0.193018C276.182 0.0798696 276.096 0 275.983 0C275.87 0 275.783 0.0865254 275.77 0.193018L275.41 4.21312C275.384 4.51929 275.144 4.76555 274.838 4.79883L271.69 5.14493C271.583 5.15824 271.497 5.25143 271.497 5.35792C271.497 5.46441 271.577 5.55759 271.69 5.5709ZM274.884 5.2248C275.39 5.17156 275.79 4.7589 275.836 4.25971L275.989 2.59576L276.142 4.25971C276.189 4.76555 276.588 5.17156 277.094 5.2248L278.326 5.35792L277.094 5.49769C276.588 5.55094 276.189 5.9636 276.142 6.46278L275.989 8.12673L275.836 6.46278C275.79 5.95694 275.39 5.55094 274.884 5.49769L273.653 5.35792L274.884 5.2248ZM305.108 132.138L302.406 131.838C302.147 131.811 301.94 131.598 301.914 131.339L301.601 127.891C301.594 127.798 301.514 127.725 301.421 127.725C301.328 127.725 301.248 127.798 301.241 127.891L300.929 131.339C300.902 131.598 300.696 131.811 300.436 131.838L297.734 132.138C297.641 132.151 297.574 132.224 297.574 132.317C297.574 132.41 297.641 132.49 297.734 132.497L300.436 132.796C300.696 132.823 300.902 133.036 300.929 133.296L301.241 136.743C301.248 136.837 301.328 136.91 301.421 136.91C301.514 136.91 301.594 136.837 301.601 136.743L301.914 133.296C301.94 133.036 302.147 132.823 302.406 132.796L305.108 132.497C305.202 132.484 305.268 132.41 305.268 132.317C305.268 132.224 305.202 132.144 305.108 132.138ZM302.366 132.437C301.934 132.484 301.594 132.836 301.554 133.269L301.428 134.693L301.301 133.269C301.261 132.836 300.922 132.484 300.489 132.437L299.431 132.317L300.489 132.197C300.922 132.151 301.268 131.798 301.301 131.366L301.428 129.941L301.554 131.366C301.594 131.798 301.934 132.151 302.366 132.197L303.425 132.317L302.366 132.437ZM9.49117 141.755L6.0834 141.376C5.75727 141.343 5.49769 141.076 5.46441 140.744L5.07172 136.397C5.05841 136.277 4.95857 136.184 4.84542 136.184C4.73227 136.184 4.62578 136.277 4.61912 136.397L4.22643 140.744C4.19315 141.07 3.94023 141.336 3.60744 141.376L0.20633 141.755C0.0865254 141.769 0 141.868 0 141.982C0 142.095 0.0865254 142.194 0.20633 142.208L3.60744 142.587C3.93358 142.62 4.19315 142.887 4.22643 143.219L4.61912 147.566C4.63244 147.686 4.72562 147.779 4.84542 147.779C4.96523 147.779 5.06506 147.686 5.07172 147.566L5.46441 143.219C5.49103 142.893 5.75061 142.627 6.0834 142.587L9.49117 142.208C9.61097 142.194 9.6975 142.095 9.6975 141.982C9.6975 141.868 9.61097 141.769 9.49117 141.755ZM6.03681 142.135C5.49103 142.194 5.05841 142.634 5.01182 143.18L4.85208 144.977L4.69234 143.18C4.64575 142.634 4.21312 142.194 3.66735 142.135L2.33619 141.988L3.66735 141.842C4.21312 141.782 4.64575 141.343 4.69234 140.797L4.85208 139L5.01182 140.797C5.05841 141.343 5.49103 141.782 6.03681 141.842L7.36797 141.988L6.03681 142.135ZM296.549 111.218L292.336 110.752C291.93 110.706 291.611 110.38 291.571 109.974L291.085 104.603C291.071 104.456 290.945 104.343 290.799 104.343C290.652 104.343 290.526 104.456 290.512 104.603L290.026 109.974C289.993 110.38 289.667 110.706 289.261 110.752L285.048 111.218C284.901 111.232 284.795 111.358 284.795 111.505C284.795 111.651 284.901 111.771 285.048 111.791L289.261 112.257C289.667 112.303 289.987 112.629 290.026 113.035L290.512 118.407C290.526 118.553 290.652 118.666 290.799 118.666C290.945 118.666 291.071 118.553 291.085 118.407L291.571 113.035C291.604 112.629 291.93 112.303 292.336 112.257L296.549 111.791C296.696 111.777 296.802 111.651 296.802 111.505C296.802 111.358 296.696 111.238 296.549 111.218ZM292.276 111.684C291.604 111.758 291.071 112.303 291.005 112.976L290.805 115.199L290.605 112.976C290.546 112.303 290.013 111.758 289.341 111.684L287.69 111.505L289.341 111.325C290.013 111.252 290.546 110.706 290.605 110.034L290.805 107.811L291.005 110.034C291.065 110.706 291.597 111.252 292.276 111.325L293.927 111.505L292.276 111.684ZM38.5038 10.2766L35.096 9.89717C34.7699 9.86389 34.5103 9.59766 34.477 9.26487L34.0843 4.91864C34.071 4.79883 33.9712 4.70565 33.8581 4.70565C33.7449 4.70565 33.6384 4.79883 33.6318 4.91864L33.2391 9.26487C33.2058 9.59101 32.9529 9.85724 32.6201 9.89717L29.219 10.2766C29.0992 10.2899 29.0126 10.3897 29.0126 10.5029C29.0126 10.616 29.0992 10.7158 29.219 10.7291L32.6201 11.1085C32.9462 11.1418 33.2058 11.408 33.2391 11.7408L33.6318 16.0871C33.6451 16.2069 33.7382 16.2934 33.8581 16.2934C33.9779 16.2934 34.0777 16.2002 34.0843 16.0871L34.477 11.7408C34.5037 11.4147 34.7632 11.1485 35.096 11.1085L38.5038 10.7291C38.6236 10.7158 38.7101 10.616 38.7101 10.5029C38.7101 10.3897 38.6236 10.2899 38.5038 10.2766ZM35.0494 10.6559C34.5037 10.7158 34.071 11.1551 34.0244 11.7009L33.8647 13.498L33.705 11.7009C33.6584 11.1551 33.2257 10.7158 32.68 10.6559L31.3488 10.5095L32.68 10.3631C33.2257 10.3032 33.6584 9.86389 33.705 9.31812L33.8647 7.52105L34.0244 9.31812C34.071 9.86389 34.5037 10.3032 35.0494 10.3631L36.3806 10.5095L35.0494 10.6559ZM272.921 75.8894L265.952 75.1173C265.214 75.0375 264.621 74.4385 264.555 73.693L263.756 64.8009C263.743 64.6345 263.603 64.508 263.437 64.508C263.27 64.508 263.13 64.6345 263.117 64.8009L262.318 73.693C262.252 74.4385 261.666 75.0375 260.921 75.1173L253.952 75.8894C253.792 75.9094 253.666 76.0425 253.666 76.2089C253.666 76.3753 253.786 76.5084 253.952 76.5284L260.921 77.3005C261.659 77.3803 262.252 77.9793 262.318 78.7248L263.117 87.6169C263.13 87.7833 263.27 87.9098 263.437 87.9098C263.603 87.9098 263.743 87.7833 263.756 87.6169L264.555 78.7248C264.621 77.9793 265.207 77.3803 265.952 77.3005L272.921 76.5284C273.081 76.5084 273.207 76.3753 273.207 76.2089C273.207 76.0425 273.087 75.9094 272.921 75.8894ZM265.879 76.6615C264.834 76.7746 264.009 77.6199 263.916 78.6649L263.437 84.0095L262.957 78.6649C262.864 77.6199 262.039 76.7746 260.994 76.6615L256.914 76.2089L260.994 75.7563C262.039 75.6432 262.864 74.7979 262.957 73.7529L263.437 68.4083L263.916 73.7529C264.009 74.7979 264.834 75.6432 265.879 75.7563L269.959 76.2089L265.879 76.6615ZM92.9882 22.7362L86.0528 21.9708C85.3872 21.8976 84.8548 21.3585 84.7949 20.6862L83.9962 11.8407C83.9762 11.6011 83.7699 11.4147 83.5303 11.4147C83.2907 11.4147 83.0843 11.6011 83.0644 11.8407L82.2657 20.6862C82.2058 21.3518 81.6733 21.8976 81.0077 21.9708L74.0724 22.7362C73.8328 22.7628 73.6531 22.9625 73.6531 23.2021C73.6531 23.4417 73.8328 23.6414 74.0724 23.668L81.0077 24.4334C81.6733 24.5067 82.2058 25.0458 82.2657 25.718L83.0644 34.5636C83.0843 34.8098 83.2907 34.9895 83.5303 34.9895C83.7699 34.9895 83.9762 34.8032 83.9962 34.5636L84.7949 25.718C84.8548 25.0524 85.3872 24.5067 86.0528 24.4334L92.9882 23.668C93.2278 23.6414 93.4075 23.4417 93.4075 23.2021C93.4075 22.9625 93.2278 22.7628 92.9882 22.7362ZM85.953 23.5016C84.8415 23.6214 83.9629 24.52 83.8631 25.6315L83.5303 29.2988L83.1975 25.6381C83.0976 24.5266 82.2191 23.6281 81.1076 23.5083L78.392 23.2088L81.1076 22.9093C82.2191 22.7895 83.0976 21.8909 83.1975 20.7794L83.5303 17.1121L83.8631 20.7727C83.9629 21.8909 84.8415 22.7828 85.953 22.9026L88.6686 23.2021L85.953 23.5016Z" fill="#260D46"/>
<defs>
<clipPath id="clip0_28_258">
<rect width="163" height="121" fill="white" transform="translate(71 35.5421)"/>
</clipPath>
</defs>
</svg>
